<?xml version="1.0" encoding="UTF-8" standalone="no"?><!DOCTYPE svg PUBLIC "-//W3C//DTD SVG 1.1//EN" "http://www.w3.org/Graphics/SVG/1.1/DTD/svg11.dtd"><!-- Generated by graphviz version 2.40.1 (20161225.0304)
 --><!-- Title: FastAPI_Services Pages: 1 --><svg xmlns="http://www.w3.org/2000/svg" xmlns:xlink="http://www.w3.org/1999/xlink" width="442pt" height="356pt" viewBox="0.00 0.00 441.97 356.40">
<g id="graph0" class="graph" transform="scale(1 1) rotate(0) translate(4 352.4)">
<title>FastAPI_Services</title>
<polygon fill="#ffffff" stroke="transparent" points="-4,4 -4,-352.4 437.9733,-352.4 437.9733,4 -4,4"/>
<!-- Speech_to_text -->
<g id="node1" class="node">
<title>Speech_to_text</title>
<polygon fill="none" stroke="#000000" points="210.7531,-348.6014 47.4757,-348.6014 47.4757,-289.7986 210.7531,-289.7986 210.7531,-348.6014"/>
<text text-anchor="middle" x="129.1144" y="-331.8" font-family="Times,serif" font-size="14.00" fill="#000000">Speech-to-Text Service</text>
<text text-anchor="middle" x="129.1144" y="-315" font-family="Times,serif" font-size="14.00" fill="#000000">(/speech-to-text)</text>
<text text-anchor="middle" x="129.1144" y="-298.2" font-family="Times,serif" font-size="14.00" fill="#000000">(/service/{service_name})</text>
</g>
<!-- Background_Task -->
<g id="node2" class="node">
<title>Background_Task</title>
<polygon fill="none" stroke="#0000ff" points="129.1144,-254.1002 -.1145,-212.4 129.1144,-170.6998 258.3433,-212.4 129.1144,-254.1002"/>
<text text-anchor="middle" x="129.1144" y="-216.6" font-family="Times,serif" font-size="14.00" fill="#000000">Background Task</text>
<text text-anchor="middle" x="129.1144" y="-199.8" font-family="Times,serif" font-size="14.00" fill="#000000">(WhisperX Process)</text>
</g>
<!-- Speech_to_text&#45;&gt;Background_Task -->
<g id="edge1" class="edge">
<title>Speech_to_text-&gt;Background_Task</title>
<path fill="none" stroke="#000000" stroke-dasharray="5,2" d="M129.1144,-289.7337C129.1144,-281.8345 129.1144,-273.0544 129.1144,-264.3267"/>
<polygon fill="#000000" stroke="#000000" points="132.6145,-264.1613 129.1144,-254.1613 125.6145,-264.1613 132.6145,-264.1613"/>
</g>
<!-- Database -->
<g id="node3" class="node">
<title>Database</title>
<path fill="none" stroke="#ffa500" d="M318.5787,-129.6821C318.5787,-132.5614 284.3062,-134.9004 242.1144,-134.9004 199.9226,-134.9004 165.6501,-132.5614 165.6501,-129.6821 165.6501,-129.6821 165.6501,-82.7179 165.6501,-82.7179 165.6501,-79.8386 199.9226,-77.4996 242.1144,-77.4996 284.3062,-77.4996 318.5787,-79.8386 318.5787,-82.7179 318.5787,-82.7179 318.5787,-129.6821 318.5787,-129.6821"/>
<path fill="none" stroke="#ffa500" d="M318.5787,-129.6821C318.5787,-126.8028 284.3062,-124.4639 242.1144,-124.4639 199.9226,-124.4639 165.6501,-126.8028 165.6501,-129.6821"/>
<text text-anchor="middle" x="242.1144" y="-110.4" font-family="Times,serif" font-size="14.00" fill="#000000">Database</text>
<text text-anchor="middle" x="242.1144" y="-93.6" font-family="Times,serif" font-size="14.00" fill="#000000">(Task &amp; Result Storage)</text>
</g>
<!-- Background_Task&#45;&gt;Database -->
<g id="edge2" class="edge">
<title>Background_Task-&gt;Database</title>
<path fill="none" stroke="#000000" stroke-dasharray="5,2" d="M162.4069,-181.1109C175.4802,-168.8243 190.5599,-154.6521 204.0611,-141.9634"/>
<polygon fill="#000000" stroke="#000000" points="206.4866,-144.487 211.3766,-135.0881 201.6927,-139.3861 206.4866,-144.487"/>
</g>
<!-- Get_All_Tasks -->
<g id="node4" class="node">
<title>Get_All_Tasks</title>
<polygon fill="none" stroke="#000000" points="226.8707,-41.4019 133.3581,-41.4019 133.3581,-.1981 226.8707,-.1981 226.8707,-41.4019"/>
<text text-anchor="middle" x="180.1144" y="-25" font-family="Times,serif" font-size="14.00" fill="#000000">Get All Tasks</text>
<text text-anchor="middle" x="180.1144" y="-8.2" font-family="Times,serif" font-size="14.00" fill="#000000">(/task/all)</text>
</g>
<!-- Database&#45;&gt;Get_All_Tasks -->
<g id="edge3" class="edge">
<title>Database-&gt;Get_All_Tasks</title>
<path fill="none" stroke="#000000" stroke-dasharray="5,2" d="M221.124,-77.2875C214.6815,-68.4134 207.5928,-58.6493 201.1474,-49.7712"/>
<polygon fill="#000000" stroke="#000000" points="203.9143,-47.6249 195.207,-41.5888 198.2497,-51.7373 203.9143,-47.6249"/>
</g>
<!-- Get_Task_Status -->
<g id="node5" class="node">
<title>Get_Task_Status</title>
<polygon fill="none" stroke="#000000" points="365.5173,-41.4019 244.7115,-41.4019 244.7115,-.1981 365.5173,-.1981 365.5173,-41.4019"/>
<text text-anchor="middle" x="305.1144" y="-25" font-family="Times,serif" font-size="14.00" fill="#000000">Task Status</text>
<text text-anchor="middle" x="305.1144" y="-8.2" font-family="Times,serif" font-size="14.00" fill="#000000">(/task/{identifier})</text>
</g>
<!-- Database&#45;&gt;Get_Task_Status -->
<g id="edge4" class="edge">
<title>Database-&gt;Get_Task_Status</title>
<path fill="none" stroke="#000000" stroke-dasharray="5,2" d="M263.4433,-77.2875C269.9898,-68.4134 277.1928,-58.6493 283.7422,-49.7712"/>
<polygon fill="#000000" stroke="#000000" points="286.6584,-51.7139 289.7784,-41.5888 281.0253,-47.5583 286.6584,-51.7139"/>
</g>
<!-- Delete_Task -->
<g id="node6" class="node">
<title>Delete_Task</title>
<polygon fill="none" stroke="#000000" points="433.8325,-233.0019 276.3963,-233.0019 276.3963,-191.7981 433.8325,-191.7981 433.8325,-233.0019"/>
<text text-anchor="middle" x="355.1144" y="-216.6" font-family="Times,serif" font-size="14.00" fill="#000000">Delete Task</text>
<text text-anchor="middle" x="355.1144" y="-199.8" font-family="Times,serif" font-size="14.00" fill="#000000">(/task/{identifier}/delete)</text>
</g>
<!-- Delete_Task&#45;&gt;Database -->
<g id="edge5" class="edge">
<title>Delete_Task-&gt;Database</title>
<path fill="none" stroke="#000000" stroke-dasharray="5,2" d="M333.0586,-191.6715C317.997,-177.5162 297.6546,-158.3979 280.0282,-141.8322"/>
<polygon fill="#000000" stroke="#000000" points="282.3475,-139.2088 272.6636,-134.9108 277.5536,-144.3097 282.3475,-139.2088"/>
</g>
</g>
</svg>
